<svg width="119" height="53" viewBox="0 0 119 53" fill="none" xmlns="http://www.w3.org/2000/svg">
<rect x="2" y="2" width="115" height="49" stroke="#5356FF" stroke-width="3"/>
<path d="M36.936 36.288C35.528 36.288 34.304 36.056 33.264 35.592C32.224 35.128 31.384 34.496 30.744 33.696L32.832 31.392C33.44 32.064 34.104 32.56 34.824 32.88C35.56 33.2 36.304 33.36 37.056 33.36C37.92 33.36 38.576 33.168 39.024 32.784C39.472 32.4 39.696 31.848 39.696 31.128C39.696 30.536 39.52 30.088 39.168 29.784C38.832 29.48 38.256 29.264 37.44 29.136L35.688 28.848C34.184 28.592 33.096 28.04 32.424 27.192C31.752 26.328 31.416 25.28 31.416 24.048C31.416 22.432 31.944 21.184 33 20.304C34.056 19.408 35.536 18.96 37.44 18.96C38.736 18.96 39.864 19.16 40.824 19.56C41.784 19.96 42.56 20.504 43.152 21.192L41.112 23.472C40.664 22.976 40.136 22.592 39.528 22.32C38.92 22.032 38.232 21.888 37.464 21.888C35.848 21.888 35.04 22.552 35.04 23.88C35.04 24.456 35.216 24.888 35.568 25.176C35.936 25.464 36.528 25.68 37.344 25.824L39.096 26.136C40.456 26.376 41.504 26.888 42.24 27.672C42.976 28.456 43.344 29.512 43.344 30.84C43.344 31.624 43.208 32.352 42.936 33.024C42.664 33.68 42.256 34.256 41.712 34.752C41.168 35.232 40.496 35.608 39.696 35.88C38.912 36.152 37.992 36.288 36.936 36.288ZM45.9266 19.248H51.3266C53.5826 19.248 55.2546 19.968 56.3426 21.408C57.4306 22.848 57.9746 24.92 57.9746 27.624C57.9746 30.328 57.4306 32.4 56.3426 33.84C55.2546 35.28 53.5826 36 51.3266 36H45.9266V19.248ZM51.0866 33.168C52.1586 33.168 52.9426 32.824 53.4386 32.136C53.9346 31.448 54.1826 30.448 54.1826 29.136V26.088C54.1826 24.792 53.9346 23.8 53.4386 23.112C52.9426 22.424 52.1586 22.08 51.0866 22.08H49.4786V33.168H51.0866ZM69.2213 36L68.1653 31.968H63.5813L62.5493 36H58.9013L63.4373 19.248H68.5253L73.0613 36H69.2213ZM65.9813 22.728H65.7893L64.1573 29.064H67.6133L65.9813 22.728ZM80.7559 36.288C78.5159 36.288 76.8519 35.536 75.7639 34.032C74.6919 32.512 74.1559 30.376 74.1559 27.624C74.1559 24.872 74.6919 22.744 75.7639 21.24C76.8519 19.72 78.5159 18.96 80.7559 18.96C81.6199 18.96 82.3799 19.08 83.0359 19.32C83.7079 19.544 84.2839 19.864 84.7639 20.28C85.2439 20.696 85.6359 21.2 85.9399 21.792C86.2599 22.384 86.5079 23.048 86.6839 23.784L83.3239 24.6C83.2279 24.2 83.1159 23.832 82.9879 23.496C82.8599 23.16 82.6919 22.872 82.4839 22.632C82.2919 22.392 82.0439 22.208 81.7399 22.08C81.4519 21.936 81.0999 21.864 80.6839 21.864C79.7079 21.864 79.0119 22.248 78.5959 23.016C78.1959 23.768 77.9959 24.816 77.9959 26.16V29.088C77.9959 30.432 78.1959 31.488 78.5959 32.256C79.0119 33.008 79.7079 33.384 80.6839 33.384C81.5159 33.384 82.1159 33.128 82.4839 32.616C82.8679 32.104 83.1479 31.448 83.3239 30.648L86.6839 31.464C86.5079 32.2 86.2599 32.864 85.9399 33.456C85.6359 34.048 85.2439 34.56 84.7639 34.992C84.2839 35.408 83.7079 35.728 83.0359 35.952C82.3799 36.176 81.6199 36.288 80.7559 36.288Z" fill="#5356FF"/>
</svg>
