<svg width="114" height="60" viewBox="0 0 114 60" fill="none" xmlns="http://www.w3.org/2000/svg">
<path d="M1.07309 53.704H4.73422V39.2234L10.4784 51.8152C11.1096 53.3262 12.0565 53.8929 13.887 53.8929C15.7176 53.8929 16.5382 53.3262 17.2326 51.8152L22.9136 39.2234V53.704H26.5747V39.2234C26.5747 37.8383 26.0066 37.1457 24.8073 36.768C22.0299 35.9495 20.1362 36.6421 19.3156 38.5308L13.7608 50.9967L8.33222 38.5308C7.51163 36.6421 5.61794 35.9495 2.84053 36.768C1.6412 37.1457 1.07309 37.7753 1.07309 39.2234V53.704Z" fill="#00678F"/>
<path d="M29.6047 41.9306H33.2658V49.8635C33.2658 50.3042 33.392 51.3115 35.412 51.3745C36.485 51.3745 43.3655 51.3745 43.4286 51.3745V41.8677H47.0897C47.0897 41.8677 47.0897 54.8372 47.0897 54.9002C47.0897 58.1111 43.113 58.8037 41.2824 58.8037H29.7309V56.3483H41.3455C43.6811 56.0964 43.4286 54.9002 43.4286 54.5225V53.5781H35.6013C31.9402 53.5781 29.6047 51.9411 29.6047 50.1153C29.6047 49.9264 29.7309 41.9936 29.6047 41.9306Z" fill="#00678F"/>
<path d="M108.761 32.6759C106.488 32.6129 104.784 32.8647 103.269 33.4314C102.827 33.6202 102.196 33.6203 102.133 34.1239C102.385 34.3758 102.385 34.6906 102.575 35.0053C102.89 35.572 103.522 36.3275 104.027 36.7052C104.595 37.146 105.226 37.5867 105.857 38.0274C106.93 38.7199 108.193 39.0977 109.266 39.7902C109.897 40.168 110.528 40.6717 111.096 41.1124C111.412 41.3642 111.601 41.679 111.98 41.8679V41.8049C111.791 41.5531 111.728 41.1753 111.538 40.9235C111.286 40.6717 110.97 40.4198 110.718 40.105C109.897 39.0347 108.887 38.0274 107.814 37.2719C106.93 36.6423 104.91 35.8238 104.595 34.7535C104.595 34.7535 104.595 34.7535 104.532 34.6906C105.163 34.6276 105.857 34.4387 106.488 34.2498C107.435 33.998 108.319 34.061 109.329 33.8091C109.771 33.6832 110.213 33.5573 110.654 33.4314C110.654 33.3684 110.654 33.2425 110.654 33.1795C110.149 32.6759 109.771 31.9833 109.266 31.5426C107.814 30.2834 106.236 29.0872 104.595 28.0799C103.711 27.5132 102.575 27.1355 101.691 26.6948C101.375 26.5059 100.807 26.4429 100.618 26.1911C100.113 25.5615 99.7973 24.743 99.4817 24.0505C98.6611 22.4765 97.9036 20.7766 97.1462 19.1397C96.6412 18.0694 96.3256 16.9361 95.6943 15.9288C92.7907 11.1439 89.6345 8.24775 84.7741 5.41459C83.701 4.84796 82.5017 4.59612 81.1761 4.28132C80.4817 4.28132 79.7874 4.21837 79.093 4.15541C78.6512 3.96653 78.2093 3.3999 77.7674 3.14806C76.1894 2.14072 72.0232 -0.0628511 70.8239 2.83327C70.0664 4.65908 71.9601 6.48489 72.5914 7.36632C73.0963 7.99591 73.6644 8.75142 74.0432 9.44397C74.2326 9.94764 74.2957 10.4513 74.485 10.955C74.9269 12.2142 75.3688 13.5363 75.9369 14.7325C76.2525 15.2992 76.5681 15.9288 77.01 16.4954C77.2625 16.8102 77.6412 16.9361 77.7043 17.4398C77.3256 18.0064 77.2625 18.8249 77.0731 19.5174C76.0631 22.6654 76.4419 26.6318 77.8937 28.9613C78.3355 29.6538 79.4086 31.2278 80.8605 30.5982C82.1229 30.0945 81.8704 28.5206 82.186 27.0725C82.2492 26.7577 82.186 26.5059 82.3754 26.317V26.38C82.7541 27.1355 83.1329 27.9539 83.5116 28.7094C84.3953 30.0945 85.9103 31.5426 87.1728 32.487C87.8671 32.9907 88.3721 33.8721 89.2558 34.1869V34.1239C89.2558 34.1239 89.2558 34.1239 89.1927 34.1239C89.0033 33.8721 88.7508 33.7462 88.5615 33.5573C88.0565 33.0536 87.4884 32.424 87.1096 31.8574C85.9103 30.2834 84.9003 28.5206 83.9535 26.7577C83.5116 25.8763 83.1329 24.9319 82.7542 24.0505C82.5648 23.7357 82.5648 23.232 82.3123 23.0431C81.8704 23.6727 81.2392 24.1764 80.9867 24.9319C80.4817 26.1281 80.4186 27.6391 80.2292 29.1502C80.103 29.1502 80.1661 29.1502 80.103 29.2131C79.2193 28.9613 78.9036 28.0799 78.5249 27.2614C77.7043 25.2467 77.5149 22.0358 78.2724 19.7693C78.4618 19.2026 79.3455 17.3139 78.9668 16.7472C78.7774 16.2435 78.2093 15.9288 77.8937 15.488C77.5149 14.9844 77.1362 14.2918 76.8837 13.6622C76.1894 12.0883 75.8737 10.3254 75.1163 8.75142C74.8007 7.99591 74.1694 7.2404 73.7276 6.61081C73.2226 5.8553 72.5914 5.28867 72.1495 4.40724C72.0233 4.09245 71.8339 3.58877 72.0233 3.27398C72.0864 3.02214 72.2126 2.95918 72.402 2.89622C72.7807 2.58143 73.7907 2.95918 74.1694 3.14806C75.2425 3.58877 76.0631 3.96653 76.9468 4.53316C77.3256 4.785 77.7674 5.35163 78.2724 5.47755C78.4618 5.47755 78.6512 5.47755 78.8405 5.47755C79.7242 5.66642 80.7342 5.54051 81.6179 5.79234C83.1329 6.29601 84.4585 6.98856 85.6578 7.74407C89.3189 10.0736 92.412 13.4104 94.4319 17.3768C94.7475 18.0064 94.9369 18.636 95.1894 19.2656C95.7575 20.6507 96.5149 22.0358 97.0831 23.4209C97.6512 24.743 98.2193 26.0652 99.103 27.1984C99.5448 27.7651 101.186 28.0799 102.007 28.3946C102.575 28.6465 103.458 28.8983 103.963 29.1502C104.91 29.7168 105.857 30.4093 106.804 31.0389C107.246 31.4167 108.698 32.1092 108.761 32.6759Z" fill="#00678F"/>
<path d="M80.0399 8.31055C79.5349 8.31055 79.2193 8.37351 78.9037 8.43646C78.9037 8.43646 78.9037 8.43647 78.9037 8.49942C78.9037 8.49942 78.9037 8.49942 78.9668 8.49942C79.2193 8.94014 79.598 9.25493 79.8505 9.63269C80.103 10.0734 80.2924 10.5141 80.4817 10.9548L80.5449 10.8919C80.9236 10.64 81.113 10.1364 81.113 9.50677C80.9236 9.31789 80.9236 9.12901 80.7973 8.94014C80.608 8.62534 80.2292 8.49942 80.0399 8.31055Z" fill="#00678F"/>
<path d="M49.9302 53.7041H60.5349C61.7973 53.7041 62.9336 53.4522 63.9435 53.0115C65.5216 52.256 66.2791 51.3116 66.2791 49.9895V47.2823C66.2791 46.212 65.3954 45.2676 63.691 44.575C62.8073 44.2602 61.6711 44.0713 60.5349 44.0713H56.1163C54.6013 44.0713 53.907 43.6306 53.7176 42.6233C53.7176 42.4974 53.7176 42.3715 53.7176 42.3085V40.6716C53.7176 40.6086 53.7176 40.4827 53.7176 40.3568C53.907 39.6013 54.2857 39.4124 55.6113 39.2865C55.7375 39.2865 55.8638 39.2865 55.9269 39.2865H66.4053V36.8311H56.1163C54.6013 36.8311 53.8439 36.894 53.1495 37.1459C51.0033 37.8384 49.9934 38.9087 49.9934 40.7975V42.8122C49.9934 44.4491 51.8239 45.8972 54.9801 46.212C55.2957 46.212 55.6744 46.212 56.0532 46.212H59.8405C59.9668 46.212 60.093 46.212 60.2193 46.212C61.3555 46.3379 61.8605 46.5268 62.2392 46.9675C62.4917 47.2193 62.4917 47.4082 62.4917 47.66V49.8006C62.4917 50.0525 62.3023 50.3673 61.9867 50.6821C61.6711 50.9968 61.103 51.1857 60.4086 51.1857C60.2824 51.1857 60.1561 51.1857 60.0299 51.1857H49.9302V53.7041Z" fill="#E38D1A"/>
<path d="M89.1927 49.4228C89.1927 51.9412 91.0864 53.3263 94.8738 53.5781C95.2525 53.5781 95.5681 53.6411 95.9468 53.6411H105.542V51.1857H95.8837C93.7375 51.1857 92.9169 50.682 92.9169 49.3599V36.7681H89.2558L89.1927 49.4228Z" fill="#E38D1A"/>
<path d="M68.6146 49.5488V40.8604C68.6146 38.6569 70.1927 37.2718 73.2857 36.894C73.6013 36.894 73.9801 36.8311 74.2957 36.8311H81.3023C81.6811 36.8311 81.9967 36.8311 82.3754 36.894C85.4684 37.3347 86.9834 38.6569 86.9834 40.8604V49.5488C86.9834 51.3746 86.3522 52.319 84.8372 52.9486L88.4352 56.2225H84.206L81.3023 53.5782L78.3356 53.767H74.4219C73.7907 53.767 73.0332 53.7041 72.2758 53.5152C69.7508 52.8227 68.6146 51.5635 68.6146 49.5488ZM72.5914 49.3599C72.5914 49.4858 72.6545 49.6117 72.6545 49.7377C72.8439 50.745 73.7907 51.3116 75.2425 51.3116H78.588L75.5581 48.5414H79.7874L82.4386 50.9339C82.9435 50.6821 83.2591 50.2413 83.3854 49.7377C83.3854 49.6117 83.3854 49.4858 83.3854 49.3599V41.0493C83.3854 40.9234 83.3854 40.7975 83.3854 40.7345C83.196 39.7901 82.2492 39.2235 80.7974 39.2235H75.2425C73.6013 39.2235 72.5282 39.916 72.5282 41.0493L72.5914 49.3599Z" fill="#E38D1A"/>
<path d="M107.183 53.7042H107.688V51.6265H108.382V51.1858H106.425V51.6265H107.183V53.7042ZM111.286 53.7042H111.791V51.2487H111.033L110.402 52.9486L109.708 51.2487H108.95V53.7042H109.455V51.8154L110.149 53.7042H110.528L111.223 51.8154L111.286 53.7042Z" fill="#E38D1A"/>
</svg>
