<svg width="61" height="61" viewBox="0 0 61 61" fill="none" xmlns="http://www.w3.org/2000/svg">
<path d="M23.1006 29.0472H35.4117C38.8354 29.0472 41.5674 26.2229 41.5674 22.7877V11.0415C41.5674 7.69868 38.7547 5.1972 35.4117 4.63236C31.285 3.9522 26.801 3.98677 23.1006 4.64372C17.8903 5.56599 16.9451 7.49114 16.9451 11.0531V13.5671H29.2676V17.3123H12.3227C8.73779 17.3123 5.60209 19.4678 4.6224 23.5601C3.49272 28.2517 3.44666 31.1797 4.6224 36.0788C5.4985 39.7216 7.5849 42.3265 11.1699 42.3265H15.4005V36.7014C15.4004 32.6323 18.9162 29.0472 23.1006 29.0472Z" fill="#347AB4"/>
<path d="M56.0268 25.4285C55.1391 21.8666 53.4563 19.1807 49.8713 19.1807H45.2491V24.6446C45.2491 28.8867 41.6524 32.46 37.5487 32.46H25.2376C21.8715 32.46 19.0819 35.3421 19.0819 38.7194V50.4544C19.0819 53.797 21.9868 55.7566 25.2376 56.7137C29.1337 57.8548 32.8799 58.0624 37.5486 56.7137C40.6496 55.8143 43.7043 54.0048 43.7043 50.4544V47.9938H31.4048V44.1949H49.8712C53.4563 44.1949 54.7818 41.6934 56.0267 37.9472C57.3179 34.0854 57.2603 30.3736 56.0268 25.4285Z" fill="#FFCA1D"/>
<path d="M22.3284 11.3919C21.1004 11.3919 20.1047 10.3851 20.1047 9.14607C20.1158 7.89592 21.1004 6.88916 22.3284 6.88916C23.5454 6.88916 24.5521 7.90693 24.5521 9.14607C24.552 10.3851 23.5564 11.3919 22.3284 11.3919Z" fill="white"/>
<path d="M37.269 54.8079C36.041 54.8079 35.0452 53.8011 35.0452 52.5621C35.0564 51.3119 36.0409 50.3052 37.269 50.3052C38.486 50.3052 39.4927 51.3229 39.4927 52.5621C39.4927 53.8011 38.4971 54.8079 37.269 54.8079Z" fill="white"/>
</svg>
